<svg id="Layer_1" data-name="Layer 1" xmlns="http://www.w3.org/2000/svg" viewBox="0 0 512 512"><defs><style>.cls-1{fill:#3eb38a;}.cls-2{fill:#141f38;}.cls-3{fill:#81c9ac;}.cls-4{fill:#ff5f6e;}.cls-5{fill:#fff;}</style></defs><title>map-filled</title><polygon class="cls-1" points="124.72 479.18 6.57 439.8 32.82 164.1 137.85 203.49 124.72 479.18"/><path class="cls-2" d="M124.72,485.74a6.61,6.61,0,0,1-2.08-.34L4.49,446A6.57,6.57,0,0,1,0,439.17L26.29,163.48A6.57,6.57,0,0,1,35.13,158l105,39.38a6.57,6.57,0,0,1,4.25,6.46L131.28,479.49a6.57,6.57,0,0,1-6.56,6.25ZM13.59,435.22l105,35L131.06,208l-92.52-34.7Z"/><polygon class="cls-3" points="256 439.8 124.72 479.18 137.85 203.49 256 164.1 256 439.8"/><path class="cls-2" d="M124.72,485.74a6.56,6.56,0,0,1-6.56-6.88l13.13-275.69a6.57,6.57,0,0,1,4.48-5.92l118.15-39.38a6.57,6.57,0,0,1,8.64,6.23V439.8a6.57,6.57,0,0,1-4.68,6.29L126.6,485.47A6.54,6.54,0,0,1,124.72,485.74Zm19.47-277.45L131.72,470.23l117.72-35.32V173.21ZM256,439.8h0Z"/><polygon class="cls-1" points="387.28 479.18 256 439.8 256 164.1 374.15 203.49 387.28 479.18"/><path class="cls-2" d="M387.28,485.74a6.51,6.51,0,0,1-1.88-.28L254.12,446.08a6.57,6.57,0,0,1-4.68-6.29V164.1a6.57,6.57,0,0,1,8.64-6.23l118.15,39.38a6.57,6.57,0,0,1,4.48,5.92l13.13,275.69a6.56,6.56,0,0,1-6.56,6.88ZM262.57,434.91l117.72,35.32L367.81,208.29,262.57,173.21Z"/><polygon class="cls-3" points="505.44 439.8 387.28 479.18 374.15 203.49 479.18 164.1 505.44 439.8"/><path class="cls-2" d="M387.28,485.74a6.57,6.57,0,0,1-6.56-6.25L367.6,203.8a6.57,6.57,0,0,1,4.25-6.46l105-39.38a6.56,6.56,0,0,1,8.84,5.53L512,439.17a6.56,6.56,0,0,1-4.46,6.85L389.36,485.41A6.61,6.61,0,0,1,387.28,485.74ZM380.94,208l12.49,262.26,105-35-24.95-262Z"/><path class="cls-4" d="M357.09,133.91C357.09,189.74,256,321.64,256,321.64S154.91,189.74,154.91,133.91a101.09,101.09,0,0,1,202.17,0Z"/><path class="cls-2" d="M256,332.43l-5.21-6.8c-4.18-5.46-102.44-134.33-102.44-191.73a107.65,107.65,0,1,1,215.3,0c0,57.4-98.26,186.27-102.44,191.73Zm0-293a94.63,94.63,0,0,0-94.52,94.52c0,45.88,74,149.07,94.52,176.79,20.51-27.72,94.52-130.92,94.52-176.79A94.63,94.63,0,0,0,256,39.38Z"/><circle class="cls-5" cx="256" cy="137.85" r="39.38"/><path class="cls-2" d="M256,183.79a45.95,45.95,0,1,1,45.95-45.95A46,46,0,0,1,256,183.79ZM256,105a32.82,32.82,0,1,0,32.82,32.82A32.86,32.86,0,0,0,256,105Z"/></svg>